<svg xmlns="http://www.w3.org/2000/svg" width="32" height="32" viewBox="0 0 24 24" fill="none" stroke="#4F46E5" stroke-width="2" stroke-linecap="round" stroke-linejoin="round">
  <path d="m15 12-8.5 8.5c-.83.83-2.17.83-3 0 0 0 0 0 0 0a2.12 2.12 0 0 1 0-3L12 9"/>
  <path d="M17.64 15 22 10.64"/>
  <path d="m20.91 11.7-1.25-1.25c-.6-.6-.93-1.4-.93-2.25v-.86L16.01 4.6l-1.29-1.29c-.6-.6-1.4-.93-2.25-.93h-.86L7 7"/>
  <path d="m9 21 3-3"/>
  <path d="M14 14.75 14.75 14"/>
  <path d="m14.8 3.4 3.7 3.7"/>
</svg>
